<svg width="24" height="24" viewBox="0 0 24 24" fill="none" xmlns="http://www.w3.org/2000/svg">
<path d="M15.5993 12.8095L15.1902 12.1809L15.1797 12.1877L15.1695 12.1949L15.5993 12.8095ZM15.5993 11.4333L15.1546 12.0372L15.1881 12.0618L15.2241 12.0826L15.5993 11.4333ZM10.0839 7.37199L10.5286 6.76806L10.5075 6.75247L10.4853 6.73841L10.0839 7.37199ZM8.92766 7.9786L9.67777 7.97642L9.6775 7.96329L8.92766 7.9786ZM8.95078 15.9563L8.20079 15.9585L8.20085 15.9797L8.20211 16.0009L8.95078 15.9563ZM10.1495 16.6211L10.5126 17.2773L10.547 17.2583L10.5793 17.2357L10.1495 16.6211ZM12 20.85C7.1123 20.85 3.15002 16.8877 3.15002 12H1.65002C1.65002 17.7162 6.28388 22.35 12 22.35V20.85ZM20.85 12C20.85 16.8877 16.8877 20.85 12 20.85V22.35C17.7162 22.35 22.35 17.7162 22.35 12H20.85ZM12 3.15002C16.8877 3.15002 20.85 7.1123 20.85 12H22.35C22.35 6.28388 17.7162 1.65002 12 1.65002V3.15002ZM12 1.65002C6.28388 1.65002 1.65002 6.28388 1.65002 12H3.15002C3.15002 7.1123 7.1123 3.15002 12 3.15002V1.65002ZM16.0085 13.438C16.4225 13.1685 16.8782 12.7296 16.8774 12.1005C16.8765 11.4545 16.3995 11.0295 15.9746 10.7839L15.2241 12.0826C15.2831 12.1167 15.3261 12.147 15.3563 12.1716C15.3866 12.1963 15.4007 12.2126 15.405 12.2181C15.4091 12.2233 15.4018 12.2153 15.3934 12.1935C15.3846 12.1704 15.3774 12.1389 15.3774 12.1025C15.3773 12.0664 15.3843 12.0378 15.3909 12.0199C15.3971 12.0032 15.401 12.0006 15.3929 12.0116C15.3847 12.0227 15.3665 12.0443 15.3325 12.0745C15.2986 12.1047 15.2521 12.1406 15.1902 12.1809L16.0085 13.438ZM16.044 10.8293L10.5286 6.76806L9.63922 7.97592L15.1546 12.0372L16.044 10.8293ZM10.4853 6.73841C10.0609 6.46956 9.49196 6.33216 8.96832 6.57666C8.40325 6.8405 8.16598 7.41421 8.17781 7.9939L9.6775 7.96329C9.67564 7.87216 9.69343 7.84762 9.68612 7.86161C9.68231 7.8689 9.67355 7.88271 9.65758 7.89817C9.64151 7.91371 9.62259 7.92662 9.60292 7.9358C9.56255 7.95465 9.54108 7.94844 9.5558 7.95051C9.56316 7.95154 9.57811 7.95459 9.60018 7.96309C9.62219 7.97155 9.65006 7.98497 9.68259 8.00557L10.4853 6.73841ZM8.17766 7.98077L8.20079 15.9585L9.70078 15.9541L9.67766 7.97642L8.17766 7.98077ZM8.20211 16.0009C8.23207 16.5041 8.4035 17.1036 8.95831 17.3999C9.50538 17.6921 10.0927 17.5097 10.5126 17.2773L9.78629 15.9649C9.72961 15.9963 9.68303 16.017 9.64657 16.0303C9.60997 16.0436 9.58718 16.0481 9.57714 16.0495C9.5674 16.0509 9.5732 16.0489 9.5909 16.0514C9.60968 16.0542 9.63616 16.0614 9.66496 16.0768C9.69387 16.0922 9.71546 16.1108 9.72943 16.1263C9.74266 16.1411 9.74498 16.1486 9.74136 16.1409C9.73756 16.1328 9.72892 16.1115 9.72019 16.0724C9.71149 16.0334 9.70356 15.9806 9.69946 15.9117L8.20211 16.0009ZM10.5793 17.2357L16.0292 13.4241L15.1695 12.1949L9.7196 16.0065L10.5793 17.2357Z" fill="#F5F5F5"/>
</svg>
