<svg width="24" height="24" viewBox="0 0 24 24" fill="none" xmlns="http://www.w3.org/2000/svg">
<path d="M2.35724 19.1574L1.60724 19.1573L2.35724 19.1574ZM2.35733 4.75741L3.10733 4.75741L2.35733 4.75741ZM4.75723 21.5574L4.75723 22.3074H4.75723V21.5574ZM9.55724 22.3074C9.97145 22.3074 10.3072 21.9716 10.3072 21.5574C10.3072 21.1432 9.97145 20.8074 9.55724 20.8074V22.3074ZM17.2076 9.55742C17.2076 9.97163 17.5434 10.3074 17.9576 10.3074C18.3718 10.3074 18.7076 9.97163 18.7076 9.55742H17.2076ZM13.1574 18.2484L12.6271 17.7181C12.4865 17.8588 12.4074 18.0495 12.4074 18.2484H13.1574ZM18.2486 13.1573L18.7789 12.627C18.486 12.3341 18.0112 12.3341 17.7183 12.627L18.2486 13.1573ZM21.6427 16.5514L22.173 17.0817C22.3137 16.9411 22.3927 16.7503 22.3927 16.5514C22.3927 16.3525 22.3137 16.1617 22.173 16.0211L21.6427 16.5514ZM16.5515 21.6426V22.3926C16.7505 22.3926 16.9412 22.3135 17.0819 22.1729L16.5515 21.6426ZM13.1574 21.6426H12.4074C12.4074 22.0568 12.7432 22.3926 13.1574 22.3926V21.6426ZM4.75733 3.10742H15.5576V1.60742H4.75733V3.10742ZM3.10724 19.1574L3.10733 4.75741L1.60733 4.7574L1.60724 19.1573L3.10724 19.1574ZM1.60724 19.1573C1.60723 20.897 3.01753 22.3074 4.75723 22.3074L4.75723 20.8074C3.84596 20.8074 3.10723 20.0686 3.10724 19.1574L1.60724 19.1573ZM4.75733 1.60742C3.01764 1.60742 1.60734 3.01772 1.60733 4.7574L3.10733 4.75741C3.10734 3.84615 3.84607 3.10742 4.75733 3.10742V1.60742ZM9.55724 20.8074H4.75723V22.3074H9.55724V20.8074ZM17.2076 4.75742V9.55742H18.7076V4.75742H17.2076ZM15.5576 3.10742C16.4689 3.10742 17.2076 3.84615 17.2076 4.75742H18.7076C18.7076 3.01772 17.2973 1.60742 15.5576 1.60742V3.10742ZM13.6878 18.7788L18.7789 13.6876L17.7183 12.627L12.6271 17.7181L13.6878 18.7788ZM17.7183 13.6876L21.1124 17.0817L22.173 16.0211L18.7789 12.627L17.7183 13.6876ZM21.1124 16.0211L16.0212 21.1122L17.0819 22.1729L22.173 17.0817L21.1124 16.0211ZM16.5515 20.8926H13.1574V22.3926H16.5515V20.8926ZM13.9074 21.6426V18.2484H12.4074V21.6426H13.9074Z" fill="#F5F5F5"/>
</svg>
