<svg width="24" height="24" viewBox="0 0 24 24" fill="none" xmlns="http://www.w3.org/2000/svg">
<path d="M9.75002 2.40002C9.75002 1.98581 9.41424 1.65002 9.00002 1.65002C8.58581 1.65002 8.25002 1.98581 8.25002 2.40002H9.75002ZM8.25002 21.6C8.25002 22.0142 8.58581 22.35 9.00002 22.35C9.41424 22.35 9.75002 22.0142 9.75002 21.6H8.25002ZM13.2 5.25002C12.7858 5.25002 12.45 5.58581 12.45 6.00002C12.45 6.41424 12.7858 6.75002 13.2 6.75002V5.25002ZM16.8 6.75002C17.2142 6.75002 17.55 6.41424 17.55 6.00002C17.55 5.58581 17.2142 5.25002 16.8 5.25002V6.75002ZM13.2 8.85002C12.7858 8.85002 12.45 9.18581 12.45 9.60002C12.45 10.0142 12.7858 10.35 13.2 10.35V8.85002ZM16.8 10.35C17.2142 10.35 17.55 10.0142 17.55 9.60002C17.55 9.18581 17.2142 8.85002 16.8 8.85002V10.35ZM13.2 12.45C12.7858 12.45 12.45 12.7858 12.45 13.2C12.45 13.6142 12.7858 13.95 13.2 13.95V12.45ZM13.8 13.95C14.2142 13.95 14.55 13.6142 14.55 13.2C14.55 12.7858 14.2142 12.45 13.8 12.45V13.95ZM6.00002 3.15002H18V1.65002H6.00002V3.15002ZM20.85 6.00002V18H22.35V6.00002H20.85ZM18 20.85H6.00002V22.35H18V20.85ZM3.15002 18V6.00002H1.65002V18H3.15002ZM6.00002 20.85C4.42601 20.85 3.15002 19.574 3.15002 18H1.65002C1.65002 20.4025 3.59759 22.35 6.00002 22.35V20.85ZM20.85 18C20.85 19.574 19.574 20.85 18 20.85V22.35C20.4025 22.35 22.35 20.4025 22.35 18H20.85ZM18 3.15002C19.574 3.15002 20.85 4.42601 20.85 6.00002H22.35C22.35 3.59759 20.4025 1.65002 18 1.65002V3.15002ZM6.00002 1.65002C3.59759 1.65002 1.65002 3.59759 1.65002 6.00002H3.15002C3.15002 4.42601 4.42601 3.15002 6.00002 3.15002V1.65002ZM8.25002 2.40002V21.6H9.75002V2.40002H8.25002ZM13.2 6.75002H16.8V5.25002H13.2V6.75002ZM13.2 10.35H16.8V8.85002H13.2V10.35ZM13.2 13.95H13.8V12.45H13.2V13.95Z" fill="#F5F5F5"/>
</svg>
