<svg width="24" height="24" viewBox="0 0 24 24" fill="none" xmlns="http://www.w3.org/2000/svg">
<path d="M10.95 2.40002C10.95 1.98581 10.6142 1.65002 10.2 1.65002C9.78581 1.65002 9.45002 1.98581 9.45002 2.40002H10.95ZM9.45002 21.6C9.45002 22.0142 9.78581 22.35 10.2 22.35C10.6142 22.35 10.95 22.0142 10.95 21.6H9.45002ZM6.00002 3.15002H18V1.65002H6.00002V3.15002ZM20.85 6.00002V18H22.35V6.00002H20.85ZM18 20.85H6.00002V22.35H18V20.85ZM3.15002 18V6.00002H1.65002V18H3.15002ZM6.00002 20.85C4.42601 20.85 3.15002 19.574 3.15002 18H1.65002C1.65002 20.4025 3.59759 22.35 6.00002 22.35V20.85ZM20.85 18C20.85 19.574 19.574 20.85 18 20.85V22.35C20.4025 22.35 22.35 20.4025 22.35 18H20.85ZM18 3.15002C19.574 3.15002 20.85 4.42601 20.85 6.00002H22.35C22.35 3.59759 20.4025 1.65002 18 1.65002V3.15002ZM6.00002 1.65002C3.59759 1.65002 1.65002 3.59759 1.65002 6.00002H3.15002C3.15002 4.42601 4.42601 3.15002 6.00002 3.15002V1.65002ZM9.45002 2.40002V21.6H10.95V2.40002H9.45002ZM10.2 12.75H21V11.25H10.2V12.75Z" fill="#F5F5F5"/>
</svg>
